<?xml version="1.0" encoding="utf-8"?>
<svg version="1.1" xmlns:xlink="http://www.w3.org/1999/xlink" width="38px" height="38px" xmlns="http://www.w3.org/2000/svg">
  <g transform="matrix(1 0 0 1 -27 -84 )">
    <path d="M 46 84  C 56.64 84  65 92.36  65 103  C 65 113.64  56.64 122  46 122  C 35.36 122  27 113.64  27 103  C 27 92.36  35.36 84  46 84  Z " fill-rule="nonzero" fill="#ffffff" stroke="none" />
    <path d="M 46 84.5  C 56.36 84.5  64.5 92.64  64.5 103  C 64.5 113.36  56.36 121.5  46 121.5  C 35.64 121.5  27.5 113.36  27.5 103  C 27.5 92.64  35.64 84.5  46 84.5  Z " stroke-width="1" stroke="#797979" fill="none" />
  </g>
</svg>