<?xml version="1.0" encoding="utf-8"?>
<svg version="1.1" xmlns:xlink="http://www.w3.org/1999/xlink" width="75px" height="73px" xmlns="http://www.w3.org/2000/svg">
  <g transform="matrix(1 0 0 1 -50 -424 )">
    <path d="M 51 435  A 10 10 0 0 1 61 425 L 114 425  A 10 10 0 0 1 124 435 L 124 486  A 10 10 0 0 1 114 496 L 61 496  A 10 10 0 0 1 51 486 L 51 435  Z " fill-rule="nonzero" fill="#ffffff" stroke="none" />
    <path d="M 50.5 435  A 10.5 10.5 0 0 1 61 424.5 L 114 424.5  A 10.5 10.5 0 0 1 124.5 435 L 124.5 486  A 10.5 10.5 0 0 1 114 496.5 L 61 496.5  A 10.5 10.5 0 0 1 50.5 486 L 50.5 435  Z " stroke-width="1" stroke-dasharray="9,4" stroke="#797979" fill="none" stroke-dashoffset="0.5" />
  </g>
</svg>