<?xml version="1.0" encoding="utf-8"?>
<svg version="1.1" xmlns:xlink="http://www.w3.org/1999/xlink" width="75px" height="73px" xmlns="http://www.w3.org/2000/svg">
  <g transform="matrix(1 0 0 1 -505 -424 )">
    <path d="M 505 424  L 580 424  L 580 497  L 505 497  L 505 424  " fill-rule="nonzero" fill="#cccccc" stroke="none" />
    <path d="M 510 429  L 575 429  L 575 492  L 510 492  L 510 429  " fill-rule="nonzero" fill="#ffffff" stroke="none" />
    <path d="M 549.475 445.9  C 546.409 445.9  544 443.491  544 440.425  C 544 437.359  546.409 434.95  549.475 434.95  C 552.541 434.95  554.95 437.359  554.95 440.425  C 554.95 443.491  552.541 445.9  549.475 445.9  " fill-rule="nonzero" fill="#cccccc" stroke="none" />
    <path d="M 512 490  L 512 457.55  L 527.25 442.8  L 548.6 455.544  L 560.8 451.65  L 573 455.544  L 573 490  L 512 490  " fill-rule="nonzero" fill="#169bd5" stroke="none" />
  </g>
</svg>